<?xml version="1.0" encoding="utf-8"?>
<!-- Generator: Adobe Illustrator 19.0.0, SVG Export Plug-In . SVG Version: 6.00 Build 0)  -->
<svg version="1.1" id="Layer_1" xmlns="http://www.w3.org/2000/svg" xmlns:xlink="http://www.w3.org/1999/xlink" x="0px" y="0px"
	 viewBox="1019 750.8 476.8 100" style="enable-background:new 1019 750.8 476.8 100;" xml:space="preserve">
<style type="text/css">
	.st0{fill:#757575;}
</style>
<g>
	<path class="st0" d="M1071.7,814l-39.5-63.2h-10.9c-2.2,0-3,1.5-1.9,3.4l26.5,43.3l0.1,0.2l18,28.7L1071.7,814z"/>
	<path class="st0" d="M1077.8,804.2c1.1-1.8,1.1-4.9,0-6.7l-26.8-43.3c-1.1-1.8-3.9-3.4-6-3.4h-11l38.6,61.8L1077.8,804.2z"/>
	<path class="st0" d="M1055.4,815.4l-22.1,35.4h11.8c2.2,0,4.9-1.5,6-3.4l10.7-17.3c0-0.1,0.1-0.2,0.3-0.5l1.1-1.8L1055.4,815.4z"/>
	<path class="st0" d="M1046,804.2l-26.5,43.3c-1.1,1.9-0.3,3.4,1.9,3.4h10.1l23-36.8l-7.7-12.4
		C1046.7,802.6,1046.4,803.5,1046,804.2z"/>
</g>
<g>
	<path class="st0" d="M1112.4,799.2h15.5v19.3c-4.2,1.4-8.8,2.2-13.8,2.2c-5.5,0-9.8-1.6-12.8-4.8c-3-3.2-4.5-7.8-4.5-13.7
		c0-5.8,1.6-10.3,4.9-13.5c3.3-3.2,7.9-4.8,13.9-4.8c2.3,0,4.4,0.2,6.4,0.6s3.7,1,5.2,1.6l-3.1,7.6c-2.6-1.3-5.4-1.9-8.5-1.9
		c-2.8,0-5,0.9-6.6,2.8c-1.5,1.8-2.3,4.5-2.3,7.9c0,3.3,0.7,5.9,2.1,7.7c1.4,1.8,3.4,2.6,6,2.6c1.4,0,2.8-0.1,4-0.4v-5.6h-6.4V799.2
		z"/>
	<path class="st0" d="M1162.9,801.5c0,6-1.6,10.6-4.9,13.8c-3.3,3.2-7.9,4.9-13.9,4.9h-11.6v-35.8h12.4c5.7,0,10.2,1.5,13.3,4.4
		C1161.3,791.7,1162.9,795.9,1162.9,801.5z M1152.8,801.8c0-3.3-0.6-5.7-1.9-7.3c-1.3-1.6-3.3-2.4-5.9-2.4h-2.8v20.1h2.2
		c2.9,0,5.1-0.9,6.5-2.6S1152.8,805.3,1152.8,801.8z"/>
	<path class="st0" d="M1180.9,799.2h15.5v19.3c-4.2,1.4-8.8,2.2-13.8,2.2c-5.5,0-9.8-1.6-12.8-4.8c-3-3.2-4.5-7.8-4.5-13.7
		c0-5.8,1.7-10.3,5-13.5c3.3-3.2,7.9-4.8,13.9-4.8c2.3,0,4.4,0.2,6.4,0.6s3.7,1,5.2,1.6l-3.1,7.6c-2.6-1.3-5.4-1.9-8.5-1.9
		c-2.8,0-5,0.9-6.6,2.8c-1.5,1.8-2.3,4.5-2.3,7.9c0,3.3,0.7,5.9,2.1,7.7c1.4,1.8,3.4,2.6,6,2.6c1.4,0,2.8-0.1,4-0.4v-5.6h-6.4V799.2
		z"/>
	<path class="st0" d="M1243,810.4c0,3.2-1.2,5.7-3.5,7.5c-2.3,1.8-5.5,2.7-9.5,2.7c-4.1,0-7.4-0.6-9.9-1.9v-5.5
		c1.6,0.8,3.4,1.4,5.2,1.8c1.8,0.4,3.5,0.7,5.1,0.7c2.3,0,4-0.4,5.1-1.3s1.7-2.1,1.7-3.6c0-1.3-0.5-2.5-1.5-3.4
		c-1-0.9-3.1-2-6.3-3.3c-3.3-1.3-5.6-2.8-6.9-4.5c-1.3-1.7-2-3.7-2-6.1c0-3,1.1-5.3,3.2-7.1s5-2.6,8.6-2.6c3.4,0,6.8,0.8,10.2,2.3
		l-1.9,4.8c-3.2-1.3-6-2-8.5-2c-1.9,0-3.3,0.4-4.3,1.2c-1,0.8-1.5,1.9-1.5,3.3c0,0.9,0.2,1.7,0.6,2.4s1,1.3,1.9,1.9
		c0.9,0.6,2.5,1.4,4.9,2.3c2.6,1.1,4.6,2.1,5.8,3.1c1.2,0.9,2.1,2,2.7,3.2C1242.7,807.4,1243,808.8,1243,810.4z"/>
	<path class="st0" d="M1246.2,785.9c0-1,0.3-1.8,0.8-2.4c0.6-0.6,1.4-0.8,2.4-0.8c1,0,1.8,0.3,2.4,0.8s0.8,1.3,0.8,2.4
		c0,1-0.3,1.8-0.8,2.3s-1.4,0.8-2.4,0.8c-1,0-1.8-0.3-2.4-0.8C1246.5,787.6,1246.2,786.9,1246.2,785.9z M1252.3,820.2h-5.8v-27.1
		h5.8V820.2z"/>
	<path class="st0" d="M1263.5,820.2h-5.8V782h5.8V820.2z"/>
	<path class="st0" d="M1268.6,785.9c0-1,0.3-1.8,0.8-2.4c0.6-0.6,1.4-0.8,2.4-0.8c1,0,1.8,0.3,2.4,0.8s0.8,1.3,0.8,2.4
		c0,1-0.3,1.8-0.8,2.3s-1.4,0.8-2.4,0.8c-1,0-1.8-0.3-2.4-0.8C1268.9,787.6,1268.6,786.9,1268.6,785.9z M1274.7,820.2h-5.8v-27.1
		h5.8V820.2z"/>
	<path class="st0" d="M1291.1,820.6c-4.1,0-7.2-1.2-9.3-3.6c-2.1-2.4-3.2-5.8-3.2-10.3c0-4.6,1.1-8.1,3.3-10.5s5.5-3.7,9.7-3.7
		c2.9,0,5.4,0.5,7.7,1.6l-1.7,4.6c-2.4-0.9-4.4-1.4-6-1.4c-4.7,0-7,3.1-7,9.3c0,3,0.6,5.3,1.8,6.8s2.9,2.3,5.1,2.3
		c2.6,0,5-0.6,7.3-1.9v5c-1,0.6-2.1,1-3.3,1.3C1294.2,820.5,1292.8,820.6,1291.1,820.6z"/>
	<path class="st0" d="M1326.3,806.6c0,4.4-1.1,7.9-3.4,10.4c-2.3,2.5-5.4,3.7-9.5,3.7c-2.5,0-4.8-0.6-6.7-1.7
		c-1.9-1.1-3.4-2.8-4.5-4.9c-1-2.1-1.6-4.6-1.6-7.4c0-4.4,1.1-7.8,3.4-10.3c2.3-2.5,5.4-3.7,9.5-3.7c3.9,0,7,1.3,9.3,3.8
		C1325.2,798.9,1326.3,802.3,1326.3,806.6z M1306.6,806.6c0,6.3,2.3,9.4,6.9,9.4c4.6,0,6.9-3.1,6.9-9.4c0-6.2-2.3-9.3-6.9-9.3
		c-2.4,0-4.2,0.8-5.3,2.4C1307.2,801.3,1306.6,803.6,1306.6,806.6z"/>
	<path class="st0" d="M1354,820.2h-5.8v-16.7c0-2.1-0.4-3.7-1.3-4.7c-0.8-1-2.2-1.5-4-1.5c-2.4,0-4.2,0.7-5.3,2.2
		c-1.1,1.4-1.7,3.8-1.7,7.2v13.5h-5.8v-27.1h4.5l0.8,3.6h0.3c0.8-1.3,2-2.3,3.5-3c1.5-0.7,3.2-1.1,5-1.1c6.5,0,9.8,3.3,9.8,9.9
		V820.2z"/>
	<path class="st0" d="M1390.6,784.3h6.1l-12.5,35.8h-6.2l-12.5-35.8h6l7.5,22.3c0.4,1.1,0.8,2.4,1.2,4.1c0.4,1.7,0.7,2.9,0.9,3.7
		c0.2-1.2,0.5-2.7,1-4.3c0.4-1.6,0.8-2.8,1.1-3.6L1390.6,784.3z"/>
	<path class="st0" d="M1415,820.2l-1.2-3.8h-0.2c-1.3,1.7-2.6,2.8-3.9,3.4s-3,0.9-5.1,0.9c-2.7,0-4.7-0.7-6.2-2.2
		c-1.5-1.4-2.2-3.5-2.2-6.1c0-2.8,1-4.9,3.1-6.3c2.1-1.4,5.2-2.2,9.5-2.3l4.7-0.1v-1.4c0-1.7-0.4-3-1.2-3.9
		c-0.8-0.9-2.1-1.3-3.8-1.3c-1.4,0-2.7,0.2-4,0.6c-1.3,0.4-2.5,0.9-3.7,1.4l-1.9-4.1c1.5-0.8,3.1-1.4,4.8-1.8s3.4-0.6,4.9-0.6
		c3.4,0,6,0.8,7.8,2.3c1.8,1.5,2.6,3.9,2.6,7.1v18.3H1415z M1406.4,816.2c2.1,0,3.8-0.6,5-1.8c1.3-1.2,1.9-2.8,1.9-4.9v-2.4
		l-3.5,0.1c-2.7,0.1-4.7,0.6-5.9,1.4s-1.8,2-1.8,3.7c0,1.2,0.4,2.1,1.1,2.8C1403.9,815.9,1405,816.2,1406.4,816.2z"/>
	<path class="st0" d="M1430.1,820.2h-5.8V782h5.8V820.2z"/>
	<path class="st0" d="M1441.3,820.2h-5.8V782h5.8V820.2z"/>
	<path class="st0" d="M1458.7,820.6c-4.2,0-7.5-1.2-9.9-3.7c-2.4-2.5-3.6-5.8-3.6-10.2c0-4.4,1.1-7.9,3.3-10.4
		c2.2-2.5,5.2-3.8,9.1-3.8c3.6,0,6.4,1.1,8.5,3.3c2.1,2.2,3.1,5.2,3.1,9v3.1h-18.1c0.1,2.6,0.8,4.7,2.1,6.1c1.3,1.4,3.2,2.1,5.7,2.1
		c1.6,0,3.1-0.2,4.5-0.5c1.4-0.3,2.9-0.8,4.4-1.5v4.7c-1.4,0.7-2.8,1.1-4.3,1.4C1462.1,820.5,1460.5,820.6,1458.7,820.6z
		 M1457.6,796.9c-1.8,0-3.3,0.6-4.4,1.7c-1.1,1.2-1.8,2.9-2,5.1h12.3c0-2.2-0.6-3.9-1.6-5.1C1460.9,797.5,1459.4,796.9,1457.6,796.9
		z"/>
	<path class="st0" d="M1468.9,793.1h6.3l5.5,15.4c0.8,2.2,1.4,4.2,1.7,6.2h0.2c0.1-0.9,0.4-2,0.8-3.3c0.4-1.3,2.5-7.4,6.2-18.3h6.2
		l-11.6,30.7c-2.1,5.6-5.6,8.5-10.5,8.5c-1.3,0-2.5-0.1-3.7-0.4v-4.6c0.9,0.2,1.9,0.3,3,0.3c2.8,0,4.7-1.6,5.9-4.8l1-2.5
		L1468.9,793.1z"/>
</g>
</svg>
