<?xml version="1.0" encoding="utf-8"?>
<!-- Generator: Adobe Illustrator 19.0.0, SVG Export Plug-In . SVG Version: 6.00 Build 0)  -->
<svg version="1.1"
	 id="dark" sodipodi:docname="‚Äì√π‚Äì√¶‚Äì‚â§‚Äì‚àè‚ÄìœÄ ‚Äì¬•‚Äì√¶‚Äì‚à´‚Äî√â‚Äì¬∫‚Äì¬µ‚ÄìŒ©‚Äî√á 1" inkscape:version="0.48.2 r9819" xmlns:rdf="http://www.w3.org/1999/02/22-rdf-syntax-ns#" xmlns:inkscape="http://www.inkscape.org/namespaces/inkscape" xmlns:cc="http://creativecommons.org/ns#" xmlns:dc="http://purl.org/dc/elements/1.1/" xmlns:svg="http://www.w3.org/2000/svg" xmlns:sodipodi="http://sodipodi.sourceforge.net/DTD/sodipodi-0.dtd"
	 xmlns="http://www.w3.org/2000/svg" xmlns:xlink="http://www.w3.org/1999/xlink" x="0px" y="0px"
	 viewBox="102.2 2379.4 747.6 200.1" style="enable-background:new 102.2 2379.4 747.6 200.1;" xml:space="preserve">
<style type="text/css">
	.st0{fill:#F6C25B;}
	.st1{fill:#0A985C;}
	.st2{fill:#5586C5;}
	.st3{fill:#D9423E;}
	.st4{fill:#168B58;}
	.st5{fill:#D7AB56;}
	.st6{fill:#4E4E4E;}
</style>
<g>
	<g>
		<path class="st0" d="M129.1,2579.4h22.6c5.4,0,12-3.8,14.8-8.4l19.1-31.7c2.3-4.7,2.2-11.4-0.4-15.7l-11.3-18.6L129.1,2579.4z"/>
		<path class="st1" d="M153.4,2487.8l-50.3,84.2c-1.9,4.1,0.1,7.5,5.1,7.5h20.9l44.8-74.4l-20.5-33.9
			C156.2,2475.6,156.2,2483.2,153.4,2487.8"/>
		<path class="st2" d="M108.1,2379.4c-5.4,0-7.5,3.8-4.7,8.4l81.8,135.8c2.6,4.3,2.6,11.1,0.4,15.7l19.9-33.1l-76.3-126.8H108.1
			L108.1,2379.4z"/>
		<path class="st3" d="M129.1,2379.4l76.3,126.8l11.1-18.4c2.8-4.6,2.8-12.1,0-16.7l-50-83.3c-2.8-4.6-9.4-8.4-14.8-8.4H129.1
			L129.1,2379.4z"/>
	</g>
</g>
<path class="st4" d="M153.4,2487.8l-12,20.1l21.5,15.3l11-18.2l-20.5-33.9C156.2,2475.6,156.2,2483.2,153.4,2487.8z"/>
<path class="st5" d="M173.9,2505l-11,18.2l22.6,16.1c2.3-4.7,2.2-11.4-0.4-15.7L173.9,2505z"/>
<g>
	<path class="st6" d="M285.8,2437.2h23.1v28.9c-6.3,2.1-13.2,3.2-20.7,3.2c-8.3,0-14.6-2.4-19.1-7.2s-6.8-11.6-6.8-20.5
		c0-8.6,2.5-15.4,7.4-20.2c4.9-4.8,11.8-7.2,20.7-7.2c3.4,0,6.5,0.3,9.5,1c3,0.6,5.6,1.4,7.8,2.4l-4.6,11.4
		c-3.9-1.9-8.1-2.9-12.7-2.9c-4.2,0-7.5,1.4-9.8,4.1s-3.5,6.7-3.5,11.8c0,5,1,8.8,3.1,11.4c2.1,2.6,5.1,3.9,9,3.9
		c2.1,0,4.1-0.2,5.9-0.6v-8.4h-9.6v-11.1H285.8z"/>
	<path class="st6" d="M360.4,2440.7c0,8.9-2.5,15.8-7.4,20.7s-11.8,7.3-20.7,7.3H315V2415h18.5c8.6,0,15.2,2.2,19.9,6.6
		S360.4,2432.4,360.4,2440.7z M345.4,2441.2c0-4.9-1-8.5-2.9-10.9s-4.9-3.6-8.8-3.6h-4.2v30h3.2c4.4,0,7.6-1.3,9.7-3.8
		C344.3,2450.3,345.4,2446.4,345.4,2441.2z"/>
	<path class="st6" d="M386.6,2437.2h23.1v28.9c-6.3,2.1-13.2,3.2-20.7,3.2c-8.3,0-14.6-2.4-19.1-7.2s-6.8-11.6-6.8-20.5
		c0-8.6,2.5-15.4,7.4-20.2s11.8-7.2,20.7-7.2c3.4,0,6.5,0.3,9.5,1c3,0.6,5.6,1.4,7.8,2.4L404,2429c-3.9-1.9-8.1-2.9-12.7-2.9
		c-4.2,0-7.5,1.4-9.8,4.1c-2.3,2.7-3.5,6.7-3.5,11.8c0,5,1,8.8,3.1,11.4s5.1,3.9,9,3.9c2.1,0,4.1-0.2,5.9-0.6v-8.4h-9.6v-11.1H386.6
		z"/>
	<path class="st6" d="M490.4,2440.7c0,8.9-2.5,15.8-7.4,20.7s-11.8,7.3-20.7,7.3H445V2415h18.5c8.6,0,15.2,2.2,19.9,6.6
		S490.4,2432.4,490.4,2440.7z M475.4,2441.2c0-4.9-1-8.5-2.9-10.9s-4.9-3.6-8.8-3.6h-4.2v30h3.2c4.4,0,7.6-1.3,9.7-3.8
		C474.4,2450.3,475.4,2446.4,475.4,2441.2z"/>
	<path class="st6" d="M514.3,2469.3c-6.9,0-12.3-1.8-16.1-5.5c-3.8-3.7-5.7-8.9-5.7-15.7c0-7,1.8-12.4,5.3-16.1s8.6-5.6,15.2-5.6
		c6.2,0,11.1,1.6,14.5,4.9s5.1,8,5.1,14.1v6.4H507c0.1,2.3,0.9,4.1,2.5,5.5c1.6,1.3,3.8,2,6.5,2c2.5,0,4.8-0.2,6.9-0.7
		c2.1-0.5,4.4-1.3,6.9-2.4v10.3c-2.2,1.1-4.6,1.9-7,2.4S517.6,2469.3,514.3,2469.3z M513.5,2436.1c-1.7,0-3.1,0.5-4.2,1.6
		c-1.1,1.1-1.8,2.7-2,5h12.3c0-2-0.6-3.6-1.7-4.8C516.8,2436.7,515.3,2436.1,513.5,2436.1z"/>
	<path class="st6" d="M546.6,2468.6l-15.8-41.5h14.9l7,24.5c0,0.1,0.1,0.3,0.1,0.6c0,0.3,0.1,0.6,0.2,1c0.1,0.4,0.1,0.8,0.2,1.3
		c0.1,0.5,0.1,0.9,0.1,1.3h0.3c0-1.3,0.2-2.6,0.7-4.1l7.4-24.6h14.9l-15.8,41.5L546.6,2468.6L546.6,2468.6z"/>
	<path class="st6" d="M591.8,2468.6h-14.2V2415h31.6v11.6h-17.4v10.2h16v11.6h-16L591.8,2468.6L591.8,2468.6z"/>
	<path class="st6" d="M632.3,2469.3c-6.9,0-12.3-1.8-16.1-5.5c-3.8-3.7-5.7-8.9-5.7-15.7c0-7,1.8-12.4,5.3-16.1s8.6-5.6,15.2-5.6
		c6.2,0,11.1,1.6,14.5,4.9s5.1,8,5.1,14.1v6.4H625c0.1,2.3,0.9,4.1,2.5,5.5c1.6,1.3,3.8,2,6.5,2c2.5,0,4.8-0.2,6.9-0.7
		c2.1-0.5,4.4-1.3,6.9-2.4v10.3c-2.2,1.1-4.6,1.9-7,2.4S635.6,2469.3,632.3,2469.3z M631.4,2436.1c-1.7,0-3.1,0.5-4.2,1.6
		c-1.1,1.1-1.8,2.7-2,5h12.3c0-2-0.6-3.6-1.7-4.8C634.7,2436.7,633.3,2436.1,631.4,2436.1z"/>
	<path class="st6" d="M685.8,2455.8c0,4.4-1.5,7.8-4.5,10.1c-3,2.3-7.4,3.4-13,3.4c-3.1,0-5.7-0.2-8-0.5c-2.3-0.3-4.6-0.9-7-1.8
		v-11.5c2.2,1,4.7,1.8,7.3,2.4s5,1,7.1,1c3.1,0,4.7-0.7,4.7-2.1c0-0.7-0.4-1.4-1.3-2c-0.9-0.6-3.4-1.7-7.6-3.4
		c-3.8-1.6-6.5-3.3-8-5.3s-2.3-4.5-2.3-7.6c0-3.9,1.5-6.9,4.5-9c3-2.1,7.2-3.2,12.6-3.2c2.7,0,5.3,0.3,7.7,0.9s4.9,1.5,7.5,2.6
		l-3.9,9.2c-1.9-0.9-3.9-1.6-6-2.2c-2.1-0.6-3.9-0.9-5.2-0.9c-2.3,0-3.5,0.6-3.5,1.7c0,0.7,0.4,1.3,1.2,1.8s3.2,1.5,7.1,3.1
		c2.9,1.2,5.1,2.4,6.5,3.5c1.4,1.1,2.5,2.5,3.1,4C685.5,2451.7,685.8,2453.6,685.8,2455.8z"/>
	<path class="st6" d="M709.2,2458c1.9,0,4.2-0.5,6.9-1.4v10.4c-1.9,0.8-3.8,1.4-5.5,1.8c-1.7,0.4-3.8,0.5-6.1,0.5
		c-4.8,0-8.3-1.2-10.4-3.5c-2.1-2.4-3.2-6-3.2-10.9v-17.1h-5v-5.8l6.4-4.5l3.7-8.7h9.4v8.3h10.2v10.7h-10.2v16.2
		C705.3,2456.6,706.6,2458,709.2,2458z"/>
</g>
<g>
	<path class="st6" d="M300.1,2539.2h-31.9v-5.7l12.1-12.2c3.6-3.7,6-6.3,7.1-7.8c1.2-1.5,2-3,2.6-4.3c0.5-1.4,0.8-2.8,0.8-4.4
		c0-2.1-0.6-3.8-1.9-5s-3-1.8-5.3-1.8c-1.8,0-3.6,0.3-5.2,1c-1.7,0.7-3.6,1.9-5.8,3.6l-4.1-5c2.6-2.2,5.2-3.8,7.6-4.7
		c2.5-0.9,5.1-1.4,7.9-1.4c4.4,0,7.9,1.1,10.5,3.4c2.6,2.3,4,5.4,4,9.2c0,2.1-0.4,4.1-1.1,6.1c-0.8,1.9-1.9,3.9-3.5,5.9
		s-4.2,4.8-7.9,8.2l-8.2,7.9v0.3h22.4v6.7H300.1z"/>
	<path class="st6" d="M338,2515.6c0,8.2-1.3,14.3-3.9,18.2s-6.7,6-12.1,6c-5.2,0-9.2-2.1-11.9-6.2s-4.1-10.1-4.1-18
		c0-8.3,1.3-14.4,3.9-18.4c2.6-3.9,6.6-5.9,12-5.9c5.3,0,9.2,2.1,12,6.2S338,2507.6,338,2515.6z M313.6,2515.6c0,6.4,0.7,11,2,13.8
		s3.4,4.1,6.3,4.1s5-1.4,6.4-4.2c1.3-2.8,2-7.4,2-13.7c0-6.3-0.7-10.9-2-13.7c-1.3-2.8-3.5-4.2-6.4-4.2s-5,1.4-6.3,4.2
		C314.3,2504.6,313.6,2509.2,313.6,2515.6z"/>
	<path class="st6" d="M366.1,2539.2h-7.6v-30.4c0-3.6,0.1-6.5,0.3-8.6c-0.5,0.5-1.1,1.1-1.8,1.7c-0.7,0.6-3.1,2.6-7.2,5.9l-3.8-4.8
		l13.9-10.9h6.3L366.1,2539.2L366.1,2539.2z"/>
	<path class="st6" d="M397.7,2509.7c4.7,0,8.5,1.3,11.3,3.8s4.2,5.9,4.2,10.3c0,5-1.6,9-4.7,11.8c-3.1,2.8-7.6,4.2-13.4,4.2
		c-5.3,0-9.4-0.8-12.4-2.5v-6.9c1.7,1,3.7,1.8,6,2.3s4.4,0.8,6.3,0.8c3.4,0,6-0.8,7.8-2.3s2.7-3.8,2.7-6.7c0-5.6-3.6-8.4-10.8-8.4
		c-1,0-2.3,0.1-3.7,0.3c-1.5,0.2-2.8,0.4-3.9,0.7l-3.4-2l1.8-23H410v6.7h-17.8l-1.1,11.7c0.8-0.1,1.7-0.3,2.8-0.5
		C395,2509.8,396.2,2509.7,397.7,2509.7z"/>
	<path class="st6" d="M467.5,2526.4c0,4.2-1.5,7.5-4.5,9.9c-3,2.4-7.2,3.6-12.5,3.6s-9.7-0.8-13.1-2.5v-7.3c2.1,1,4.4,1.8,6.8,2.4
		c2.4,0.6,4.7,0.9,6.8,0.9c3.1,0,5.3-0.6,6.8-1.7c1.4-1.2,2.2-2.7,2.2-4.7c0-1.8-0.7-3.3-2-4.5s-4.1-2.7-8.2-4.4
		c-4.3-1.7-7.3-3.7-9.1-6c-1.8-2.3-2.6-4.9-2.6-8.1c0-3.9,1.4-7,4.2-9.3s6.5-3.4,11.2-3.4c4.5,0,9,1,13.5,3l-2.4,6.3
		c-4.2-1.8-7.9-2.6-11.2-2.6c-2.5,0-4.4,0.5-5.7,1.6c-1.3,1.1-1.9,2.5-1.9,4.3c0,1.2,0.3,2.3,0.8,3.1c0.5,0.9,1.4,1.7,2.5,2.5
		s3.3,1.8,6.4,3.1c3.5,1.4,6,2.8,7.6,4c1.6,1.2,2.8,2.7,3.5,4.2S467.5,2524.2,467.5,2526.4z"/>
	<path class="st6" d="M475.5,2494.1c0-1.4,0.4-2.4,1.1-3.1c0.7-0.7,1.8-1.1,3.2-1.1c1.3,0,2.4,0.4,3.1,1.1c0.7,0.7,1.1,1.8,1.1,3.1
		s-0.4,2.3-1.1,3s-1.8,1.1-3.1,1.1c-1.4,0-2.4-0.4-3.2-1.1C475.9,2496.4,475.5,2495.4,475.5,2494.1z M483.5,2539.2H476v-35.6h7.6
		v35.6H483.5z"/>
	<path class="st6" d="M502.1,2539.2h-7.6V2489h7.6V2539.2z"/>
	<path class="st6" d="M512.7,2494.1c0-1.4,0.4-2.4,1.1-3.1c0.7-0.7,1.8-1.1,3.2-1.1c1.3,0,2.4,0.4,3.1,1.1c0.7,0.7,1.1,1.8,1.1,3.1
		s-0.4,2.3-1.1,3c-0.7,0.7-1.8,1.1-3.1,1.1c-1.4,0-2.4-0.4-3.2-1.1C513.1,2496.4,512.7,2495.4,512.7,2494.1z M520.7,2539.2h-7.6
		v-35.6h7.6V2539.2z"/>
	<path class="st6" d="M546.1,2539.8c-5.4,0-9.5-1.6-12.3-4.7c-2.8-3.1-4.2-7.7-4.2-13.6c0-6,1.5-10.6,4.4-13.8s7.2-4.8,12.7-4.8
		c3.8,0,7.1,0.7,10.2,2.1l-2.3,6.1c-3.2-1.2-5.8-1.9-7.9-1.9c-6.2,0-9.2,4.1-9.2,12.3c0,4,0.8,7,2.3,9s3.8,3,6.8,3
		c3.4,0,6.6-0.8,9.6-2.5v6.6c-1.4,0.8-2.8,1.4-4.3,1.7C550.2,2539.6,548.3,2539.8,546.1,2539.8z"/>
	<path class="st6" d="M596.3,2521.3c0,5.8-1.5,10.4-4.5,13.6s-7.1,4.9-12.5,4.9c-3.3,0-6.3-0.8-8.8-2.3s-4.5-3.7-5.9-6.5
		c-1.4-2.8-2.1-6.1-2.1-9.8c0-5.8,1.5-10.3,4.4-13.5c2.9-3.2,7.1-4.9,12.5-4.9c5.2,0,9.2,1.7,12.2,5
		C594.8,2511.2,596.3,2515.6,596.3,2521.3z M570.3,2521.3c0,8.2,3,12.3,9.1,12.3c6,0,9-4.1,9-12.3c0-8.1-3-12.2-9.1-12.2
		c-3.2,0-5.5,1.1-6.9,3.2C571,2514.4,570.3,2517.3,570.3,2521.3z"/>
	<path class="st6" d="M636.5,2539.2h-7.6v-21.9c0-2.8-0.6-4.8-1.7-6.2c-1.1-1.4-2.9-2-5.3-2c-3.2,0-5.5,0.9-7,2.8s-2.2,5.1-2.2,9.5
		v17.8h-7.6v-35.6h5.9l1.1,4.7h0.4c1.1-1.7,2.6-3,4.6-3.9s4.2-1.4,6.6-1.4c8.6,0,12.8,4.4,12.8,13.1V2539.2z"/>
	<path class="st6" d="M692.2,2492h8l-16.5,47.1h-8.1l-16.4-47.1h7.9l9.8,29.3c0.5,1.4,1.1,3.2,1.6,5.4c0.6,2.2,1,3.8,1.1,4.9
		c0.3-1.6,0.7-3.5,1.3-5.7c0.6-2.2,1.1-3.7,1.4-4.8L692.2,2492z"/>
	<path class="st6" d="M728.2,2539.2l-1.5-5h-0.3c-1.7,2.2-3.4,3.6-5.2,4.4c-1.7,0.8-4,1.2-6.7,1.2c-3.5,0-6.2-0.9-8.2-2.8
		s-2.9-4.6-2.9-8c0-3.7,1.4-6.4,4.1-8.3s6.9-2.9,12.5-3.1l6.2-0.2v-1.9c0-2.3-0.5-4-1.6-5.1c-1.1-1.1-2.7-1.7-4.9-1.7
		c-1.8,0-3.6,0.3-5.3,0.8s-3.3,1.2-4.8,1.9l-2.4-5.4c1.9-1,4-1.8,6.3-2.3s4.5-0.8,6.5-0.8c4.5,0,8,1,10.3,3s3.5,5.1,3.5,9.3v24
		H728.2z M716.9,2534c2.8,0,5-0.8,6.6-2.3c1.7-1.5,2.5-3.7,2.5-6.5v-3.1l-4.6,0.2c-3.6,0.1-6.2,0.7-7.8,1.8
		c-1.6,1.1-2.4,2.7-2.4,4.9c0,1.6,0.5,2.8,1.4,3.7C713.6,2533.6,715,2534,716.9,2534z"/>
	<path class="st6" d="M751.9,2539.2h-7.6V2489h7.6V2539.2z"/>
	<path class="st6" d="M770.5,2539.2h-7.6V2489h7.6V2539.2z"/>
	<path class="st6" d="M797.1,2539.8c-5.5,0-9.9-1.6-13-4.8c-3.1-3.2-4.7-7.7-4.7-13.4c0-5.8,1.5-10.4,4.4-13.7s6.9-5,12-5
		c4.7,0,8.4,1.4,11.2,4.3s4.1,6.8,4.1,11.8v4.1h-23.8c0.1,3.5,1,6.1,2.8,8c1.8,1.9,4.2,2.8,7.4,2.8c2.1,0,4.1-0.2,5.9-0.6
		s3.8-1.1,5.8-2v6.2c-1.8,0.9-3.7,1.5-5.6,1.9C801.7,2539.8,799.5,2539.8,797.1,2539.8z M795.7,2508.6c-2.4,0-4.3,0.8-5.8,2.3
		c-1.4,1.5-2.3,3.7-2.6,6.7h16.2c0-2.9-0.8-5.2-2.1-6.7C800,2509.4,798.1,2508.6,795.7,2508.6z"/>
	<path class="st6" d="M814.3,2503.5h8.2l7.3,20.2c1.1,2.9,1.8,5.6,2.2,8.1h0.3c0.2-1.2,0.5-2.6,1.1-4.3s3.2-9.7,8.2-24h8.2
		l-15.2,40.4c-2.8,7.4-7.4,11.1-13.9,11.1c-1.7,0-3.3-0.2-4.9-0.5v-6c1.1,0.3,2.4,0.4,3.9,0.4c3.7,0,6.2-2.1,7.7-6.3l1.3-3.4
		L814.3,2503.5z"/>
</g>
</svg>
