<?xml version="1.0" encoding="utf-8"?>
<!-- Generator: Adobe Illustrator 19.0.0, SVG Export Plug-In . SVG Version: 6.00 Build 0)  -->
<svg version="1.1" id="Layer_1" xmlns="http://www.w3.org/2000/svg" xmlns:xlink="http://www.w3.org/1999/xlink" x="0px" y="0px"
	 viewBox="403.6 3361.4 749.1 200" style="enable-background:new 403.6 3361.4 749.1 200;" xml:space="preserve">
<style type="text/css">
	.st0{fill:#FFFFFF;}
</style>
<g>
	<path class="st0" d="M509.2,3487.8l-79-126.4h-21.8c-4.4,0-6,3-3.8,6.7l53,86.5l0.3,0.4l35.9,57.5L509.2,3487.8z"/>
	<path class="st0" d="M521.4,3468.1c2.3-3.7,2.3-9.7,0-13.4l-53.6-86.6c-2.3-3.7-7.7-6.7-12-6.7h-22l77.2,123.5L521.4,3468.1z"/>
	<path class="st0" d="M476.5,3490.6l-44.2,70.8h23.5c4.3,0,9.8-3,12-6.7l21.4-34.6c0.1-0.1,0.2-0.4,0.6-1l2.2-3.6L476.5,3490.6z"/>
	<path class="st0" d="M457.7,3468.1l-53,86.5c-2.3,3.7-0.6,6.7,3.8,6.7h20.3l46-73.6l-15.4-24.8
		C459.1,3464.8,458.5,3466.6,457.7,3468.1z"/>
</g>
<g>
	<path class="st0" d="M588.5,3418.7h23.1v28.9c-6.3,2.1-13.2,3.2-20.7,3.2c-8.3,0-14.6-2.4-19.1-7.2c-4.5-4.8-6.8-11.6-6.8-20.5
		c0-8.6,2.5-15.4,7.4-20.2s11.8-7.2,20.7-7.2c3.4,0,6.5,0.3,9.5,1c3,0.6,5.6,1.4,7.8,2.4l-4.6,11.4c-3.9-1.9-8.1-2.9-12.7-2.9
		c-4.2,0-7.5,1.4-9.8,4.1c-2.3,2.7-3.5,6.7-3.5,11.8c0,5,1,8.8,3.1,11.4c2.1,2.6,5.1,3.9,9,3.9c2.1,0,4.1-0.2,5.9-0.6v-8.4h-9.6
		V3418.7z"/>
	<path class="st0" d="M663.1,3422.1c0,8.9-2.5,15.8-7.4,20.7s-11.8,7.3-20.7,7.3h-17.3v-53.5h18.5c8.6,0,15.2,2.2,19.9,6.6
		S663.1,3413.8,663.1,3422.1z M648.1,3422.6c0-4.9-1-8.5-2.9-10.9c-1.9-2.4-4.9-3.6-8.8-3.6h-4.2v30h3.2c4.4,0,7.6-1.3,9.7-3.8
		C647.1,3431.8,648.1,3427.9,648.1,3422.6z"/>
	<path class="st0" d="M689.3,3418.7h23.1v28.9c-6.3,2.1-13.2,3.2-20.7,3.2c-8.3,0-14.6-2.4-19.1-7.2c-4.5-4.8-6.8-11.6-6.8-20.5
		c0-8.6,2.5-15.4,7.4-20.2s11.8-7.2,20.7-7.2c3.4,0,6.5,0.3,9.5,1c3,0.6,5.6,1.4,7.8,2.4l-4.6,11.4c-3.9-1.9-8.1-2.9-12.7-2.9
		c-4.2,0-7.5,1.4-9.8,4.1c-2.3,2.7-3.5,6.7-3.5,11.8c0,5,1,8.8,3.1,11.4c2.1,2.6,5.1,3.9,9,3.9c2.1,0,4.1-0.2,5.9-0.6v-8.4h-9.6
		V3418.7z"/>
	<path class="st0" d="M793.1,3422.1c0,8.9-2.5,15.8-7.4,20.7s-11.8,7.3-20.7,7.3h-17.3v-53.5h18.5c8.6,0,15.2,2.2,19.9,6.6
		S793.1,3413.8,793.1,3422.1z M778.1,3422.6c0-4.9-1-8.5-2.9-10.9c-1.9-2.4-4.9-3.6-8.8-3.6h-4.2v30h3.2c4.4,0,7.6-1.3,9.7-3.8
		C777.1,3431.8,778.1,3427.9,778.1,3422.6z"/>
	<path class="st0" d="M817.1,3450.8c-6.9,0-12.3-1.8-16.1-5.5c-3.8-3.7-5.7-8.9-5.7-15.7c0-7,1.8-12.4,5.3-16.1s8.6-5.6,15.2-5.6
		c6.2,0,11.1,1.6,14.5,4.9c3.4,3.3,5.1,8,5.1,14.1v6.4h-25.6c0.1,2.3,0.9,4.1,2.5,5.5c1.6,1.3,3.8,2,6.5,2c2.5,0,4.8-0.2,6.9-0.7
		c2.1-0.5,4.4-1.3,6.9-2.4v10.3c-2.2,1.1-4.6,1.9-7,2.4S820.4,3450.8,817.1,3450.8z M816.2,3417.6c-1.7,0-3.1,0.5-4.2,1.6
		c-1.1,1.1-1.8,2.7-2,5h12.3c0-2-0.6-3.6-1.7-4.8C819.5,3418.2,818,3417.6,816.2,3417.6z"/>
	<path class="st0" d="M849.4,3450l-15.8-41.5h14.9l7,24.5c0,0.1,0.1,0.3,0.1,0.6s0.1,0.6,0.2,1c0.1,0.4,0.1,0.8,0.2,1.3
		c0.1,0.5,0.1,0.9,0.1,1.3h0.3c0-1.3,0.2-2.6,0.7-4.1l7.4-24.6h14.9l-15.8,41.5H849.4z"/>
	<path class="st0" d="M894.5,3450h-14.2v-53.5h31.6v11.6h-17.4v10.2h16v11.6h-16V3450z"/>
	<path class="st0" d="M935,3450.8c-6.9,0-12.3-1.8-16.1-5.5c-3.8-3.7-5.7-8.9-5.7-15.7c0-7,1.8-12.4,5.3-16.1s8.6-5.6,15.2-5.6
		c6.2,0,11.1,1.6,14.5,4.9c3.4,3.3,5.1,8,5.1,14.1v6.4h-25.6c0.1,2.3,0.9,4.1,2.5,5.5c1.6,1.3,3.8,2,6.5,2c2.5,0,4.8-0.2,6.9-0.7
		c2.1-0.5,4.4-1.3,6.9-2.4v10.3c-2.2,1.1-4.6,1.9-7,2.4S938.4,3450.8,935,3450.8z M934.2,3417.6c-1.7,0-3.1,0.5-4.2,1.6
		c-1.1,1.1-1.8,2.7-2,5h12.3c0-2-0.6-3.6-1.7-4.8C937.5,3418.2,936,3417.6,934.2,3417.6z"/>
	<path class="st0" d="M988.5,3437.3c0,4.4-1.5,7.8-4.5,10.1c-3,2.3-7.4,3.4-13,3.4c-3.1,0-5.7-0.2-8-0.5c-2.3-0.3-4.6-0.9-7-1.8
		V3437c2.2,1,4.7,1.8,7.3,2.4c2.6,0.6,5,1,7.1,1c3.1,0,4.7-0.7,4.7-2.1c0-0.7-0.4-1.4-1.3-2s-3.4-1.7-7.6-3.4
		c-3.8-1.6-6.5-3.3-8-5.3c-1.5-2-2.3-4.5-2.3-7.6c0-3.9,1.5-6.9,4.5-9c3-2.1,7.2-3.2,12.6-3.2c2.7,0,5.3,0.3,7.7,0.9
		c2.4,0.6,4.9,1.5,7.5,2.6l-3.9,9.2c-1.9-0.9-3.9-1.6-6-2.2c-2.1-0.6-3.9-0.9-5.2-0.9c-2.3,0-3.5,0.6-3.5,1.7c0,0.7,0.4,1.3,1.2,1.8
		c0.8,0.5,3.2,1.5,7.1,3.1c2.9,1.2,5.1,2.4,6.5,3.5c1.4,1.1,2.5,2.5,3.1,4C988.2,3433.2,988.5,3435.1,988.5,3437.3z"/>
	<path class="st0" d="M1011.9,3439.5c1.9,0,4.2-0.5,6.9-1.4v10.4c-1.9,0.8-3.8,1.4-5.5,1.8c-1.7,0.4-3.8,0.5-6.1,0.5
		c-4.8,0-8.3-1.2-10.4-3.5c-2.1-2.4-3.2-6-3.2-10.9v-17.1h-5v-5.8l6.4-4.5l3.7-8.7h9.4v8.3h10.2v10.7H1008v16.2
		C1008,3438.1,1009.3,3439.5,1011.9,3439.5z"/>
</g>
<g>
	<path class="st0" d="M602.8,3520.6h-31.9v-5.7l12.1-12.2c3.6-3.7,6-6.3,7.1-7.8c1.2-1.5,2-3,2.6-4.3c0.5-1.4,0.8-2.8,0.8-4.4
		c0-2.1-0.6-3.8-1.9-5s-3-1.8-5.3-1.8c-1.8,0-3.6,0.3-5.2,1s-3.6,1.9-5.8,3.6l-4.1-5c2.6-2.2,5.2-3.8,7.6-4.7
		c2.5-0.9,5.1-1.4,7.9-1.4c4.4,0,7.9,1.1,10.5,3.4c2.6,2.3,4,5.4,4,9.2c0,2.1-0.4,4.1-1.1,6.1s-1.9,3.9-3.5,5.9
		c-1.6,2-4.2,4.8-7.9,8.2l-8.2,7.9v0.3h22.4V3520.6z"/>
	<path class="st0" d="M640.7,3497.1c0,8.2-1.3,14.3-3.9,18.2s-6.7,6-12.1,6c-5.2,0-9.2-2.1-11.9-6.2s-4.1-10.1-4.1-18
		c0-8.3,1.3-14.4,3.9-18.4c2.6-3.9,6.6-5.9,12-5.9c5.3,0,9.2,2.1,12,6.2S640.7,3489.1,640.7,3497.1z M616.4,3497.1
		c0,6.4,0.7,11,2,13.8c1.3,2.8,3.4,4.1,6.3,4.1s5-1.4,6.4-4.2c1.3-2.8,2-7.4,2-13.7c0-6.3-0.7-10.9-2-13.7c-1.3-2.8-3.5-4.2-6.4-4.2
		s-5,1.4-6.3,4.2C617,3486,616.4,3490.6,616.4,3497.1z"/>
	<path class="st0" d="M668.9,3520.6h-7.6v-30.4c0-3.6,0.1-6.5,0.3-8.6c-0.5,0.5-1.1,1.1-1.8,1.7s-3.1,2.6-7.2,5.9l-3.8-4.8
		l13.9-10.9h6.3V3520.6z"/>
	<path class="st0" d="M700.5,3491.2c4.7,0,8.5,1.3,11.3,3.8s4.2,5.9,4.2,10.3c0,5-1.6,9-4.7,11.8c-3.1,2.8-7.6,4.2-13.4,4.2
		c-5.3,0-9.4-0.8-12.4-2.5v-6.9c1.7,1,3.7,1.8,6,2.3s4.4,0.8,6.3,0.8c3.4,0,6-0.8,7.8-2.3s2.7-3.8,2.7-6.7c0-5.6-3.6-8.4-10.8-8.4
		c-1,0-2.3,0.1-3.7,0.3c-1.5,0.2-2.8,0.4-3.9,0.7l-3.4-2l1.8-23h24.5v6.7h-17.8l-1.1,11.7c0.8-0.1,1.7-0.3,2.8-0.5
		S698.9,3491.2,700.5,3491.2z"/>
	<path class="st0" d="M770.2,3507.8c0,4.2-1.5,7.5-4.5,9.9s-7.2,3.6-12.5,3.6s-9.7-0.8-13.1-2.5v-7.3c2.1,1,4.4,1.8,6.8,2.4
		c2.4,0.6,4.7,0.9,6.8,0.9c3.1,0,5.3-0.6,6.8-1.7c1.4-1.2,2.2-2.7,2.2-4.7c0-1.8-0.7-3.3-2-4.5s-4.1-2.7-8.2-4.4
		c-4.3-1.7-7.3-3.7-9.1-6s-2.6-4.9-2.6-8.1c0-3.9,1.4-7,4.2-9.3s6.5-3.4,11.2-3.4c4.5,0,9,1,13.5,3l-2.4,6.3
		c-4.2-1.8-7.9-2.6-11.2-2.6c-2.5,0-4.4,0.5-5.7,1.6c-1.3,1.1-1.9,2.5-1.9,4.3c0,1.2,0.3,2.3,0.8,3.1c0.5,0.9,1.4,1.7,2.5,2.5
		s3.3,1.8,6.4,3.1c3.5,1.4,6,2.8,7.6,4s2.8,2.7,3.5,4.2S770.2,3505.7,770.2,3507.8z"/>
	<path class="st0" d="M778.3,3475.5c0-1.4,0.4-2.4,1.1-3.1c0.7-0.7,1.8-1.1,3.2-1.1c1.3,0,2.4,0.4,3.1,1.1c0.7,0.7,1.1,1.8,1.1,3.1
		c0,1.3-0.4,2.3-1.1,3c-0.7,0.7-1.8,1.1-3.1,1.1c-1.4,0-2.4-0.4-3.2-1.1C778.6,3477.8,778.3,3476.8,778.3,3475.5z M786.3,3520.6
		h-7.6V3485h7.6V3520.6z"/>
	<path class="st0" d="M804.9,3520.6h-7.6v-50.1h7.6V3520.6z"/>
	<path class="st0" d="M815.5,3475.5c0-1.4,0.4-2.4,1.1-3.1c0.7-0.7,1.8-1.1,3.2-1.1c1.3,0,2.4,0.4,3.1,1.1c0.7,0.7,1.1,1.8,1.1,3.1
		c0,1.3-0.4,2.3-1.1,3c-0.7,0.7-1.8,1.1-3.1,1.1c-1.4,0-2.4-0.4-3.2-1.1C815.8,3477.8,815.5,3476.8,815.5,3475.5z M823.5,3520.6
		h-7.6V3485h7.6V3520.6z"/>
	<path class="st0" d="M848.9,3521.3c-5.4,0-9.5-1.6-12.3-4.7c-2.8-3.1-4.2-7.7-4.2-13.6c0-6,1.5-10.6,4.4-13.8
		c2.9-3.2,7.2-4.8,12.7-4.8c3.8,0,7.1,0.7,10.2,2.1l-2.3,6.1c-3.2-1.2-5.8-1.9-7.9-1.9c-6.2,0-9.2,4.1-9.2,12.3c0,4,0.8,7,2.3,9
		c1.5,2,3.8,3,6.8,3c3.4,0,6.6-0.8,9.6-2.5v6.6c-1.4,0.8-2.8,1.4-4.3,1.7C852.9,3521.1,851.1,3521.3,848.9,3521.3z"/>
	<path class="st0" d="M899,3502.7c0,5.8-1.5,10.4-4.5,13.6s-7.1,4.9-12.5,4.9c-3.3,0-6.3-0.8-8.8-2.3s-4.5-3.7-5.9-6.5
		s-2.1-6.1-2.1-9.8c0-5.8,1.5-10.3,4.4-13.5s7.1-4.9,12.5-4.9c5.2,0,9.2,1.7,12.2,5C897.5,3492.6,899,3497.1,899,3502.7z
		 M873.1,3502.7c0,8.2,3,12.3,9.1,12.3c6,0,9-4.1,9-12.3c0-8.1-3-12.2-9.1-12.2c-3.2,0-5.5,1.1-6.9,3.2S873.1,3498.8,873.1,3502.7z"
		/>
	<path class="st0" d="M939.3,3520.6h-7.6v-21.9c0-2.8-0.6-4.8-1.7-6.2c-1.1-1.4-2.9-2-5.3-2c-3.2,0-5.5,0.9-7,2.8s-2.2,5.1-2.2,9.5
		v17.8h-7.6V3485h5.9l1.1,4.7h0.4c1.1-1.7,2.6-3,4.6-3.9s4.2-1.4,6.6-1.4c8.6,0,12.8,4.4,12.8,13.1V3520.6z"/>
	<path class="st0" d="M995,3473.5h8l-16.5,47.1h-8.1l-16.4-47.1h7.9l9.8,29.3c0.5,1.4,1.1,3.2,1.6,5.4c0.6,2.2,1,3.8,1.1,4.9
		c0.3-1.6,0.7-3.5,1.3-5.7s1.1-3.7,1.4-4.8L995,3473.5z"/>
	<path class="st0" d="M1030.9,3520.6l-1.5-5h-0.3c-1.7,2.2-3.4,3.6-5.2,4.4c-1.7,0.8-4,1.2-6.7,1.2c-3.5,0-6.2-0.9-8.2-2.8
		c-2-1.9-2.9-4.6-2.9-8c0-3.7,1.4-6.4,4.1-8.3s6.9-2.9,12.5-3.1l6.2-0.2v-1.9c0-2.3-0.5-4-1.6-5.1c-1.1-1.1-2.7-1.7-4.9-1.7
		c-1.8,0-3.6,0.3-5.3,0.8s-3.3,1.2-4.8,1.9l-2.4-5.4c1.9-1,4-1.8,6.3-2.3c2.3-0.5,4.5-0.8,6.5-0.8c4.5,0,8,1,10.3,3s3.5,5.1,3.5,9.3
		v24H1030.9z M1019.6,3515.5c2.8,0,5-0.8,6.6-2.3c1.7-1.5,2.5-3.7,2.5-6.5v-3.1l-4.6,0.2c-3.6,0.1-6.2,0.7-7.8,1.8
		c-1.6,1.1-2.4,2.7-2.4,4.9c0,1.6,0.5,2.8,1.4,3.7C1016.3,3515,1017.7,3515.5,1019.6,3515.5z"/>
	<path class="st0" d="M1054.6,3520.6h-7.6v-50.1h7.6V3520.6z"/>
	<path class="st0" d="M1073.2,3520.6h-7.6v-50.1h7.6V3520.6z"/>
	<path class="st0" d="M1099.8,3521.3c-5.5,0-9.9-1.6-13-4.8c-3.1-3.2-4.7-7.7-4.7-13.4c0-5.8,1.5-10.4,4.4-13.7s6.9-5,12-5
		c4.7,0,8.4,1.4,11.2,4.3s4.1,6.8,4.1,11.8v4.1h-23.8c0.1,3.5,1,6.1,2.8,8s4.2,2.8,7.4,2.8c2.1,0,4.1-0.2,5.9-0.6s3.8-1.1,5.8-2v6.2
		c-1.8,0.9-3.7,1.5-5.6,1.9S1102.3,3521.3,1099.8,3521.3z M1098.5,3490.1c-2.4,0-4.3,0.8-5.8,2.3c-1.4,1.5-2.3,3.7-2.6,6.7h16.2
		c0-2.9-0.8-5.2-2.1-6.7C1102.8,3490.8,1100.9,3490.1,1098.5,3490.1z"/>
	<path class="st0" d="M1117.1,3485h8.2l7.3,20.2c1.1,2.9,1.8,5.6,2.2,8.1h0.3c0.2-1.2,0.5-2.6,1.1-4.3s3.2-9.7,8.2-24h8.2
		l-15.2,40.4c-2.8,7.4-7.4,11.1-13.9,11.1c-1.7,0-3.3-0.2-4.9-0.5v-6c1.1,0.3,2.4,0.4,3.9,0.4c3.7,0,6.2-2.1,7.7-6.3l1.3-3.4
		L1117.1,3485z"/>
</g>
</svg>
